<?xml version="1.0" encoding="utf-8"?>
<!-- Generator: Adobe Illustrator 24.0.1, SVG Export Plug-In . SVG Version: 6.00 Build 0)  -->
<svg version="1.1" id="レイヤー_1" xmlns="http://www.w3.org/2000/svg" xmlns:xlink="http://www.w3.org/1999/xlink" x="0px"
	 y="0px" viewBox="0 0 280 83.6" style="enable-background:new 0 0 280 83.6;" xml:space="preserve">
<g>
	<path d="M37.7,12.8l10,31.2l2.1,7.5l2.5-7.5l10.6-29.8h8.6L82.4,44l2.3,7.3l2.2-7.3l9.8-31.2H107L89.5,65.4h-9.7L69.6,37l-2.7-9
		l-2.7,9l-9.9,28.4h-9.8L26.6,12.8H37.7z"/>
	<path d="M124.6,28.7c12,0,18.8,7.7,18.8,18.6c0,11-6.8,18.7-18.8,18.7s-18.8-7.7-18.8-18.7C105.7,36.4,112.5,28.7,124.6,28.7z
		 M133.7,47.4c0-6.7-3.6-10.4-9.2-10.4s-9.2,3.6-9.2,10.4s3.7,10.4,9.3,10.4S133.7,54.1,133.7,47.4z"/>
	<path d="M150.8,11.2c2.8,0,6.9-0.5,9.7-1.3v55.4h-9.7V11.2z"/>
	<path d="M169.9,83.6V30.5c2.8,0,6.9-0.5,9.7-1.3v3.2c2.4-2.4,5.7-3.7,9.2-3.7c11.2,0,16.9,7.6,16.9,18.8c0,11.1-7.1,18.5-18.3,18.5
		c-3.2,0-5.9-0.9-7.8-2.2v18.5C176.8,82.4,172.7,82.9,169.9,83.6z M186.3,57.8c6.3,0,9.5-4.8,9.5-10.3c0-6.1-2.7-10.6-9.2-10.6
		c-2.8,0-5.1,1-6.9,2.4v17C181.3,57.3,183.5,57.8,186.3,57.8z"/>
	<path d="M213.5,11.2c2.8,0,6.9-0.5,9.7-1.3v25.3c2-3.3,5.7-6.5,11.9-6.5c9.1,0,12.3,7.1,12.3,15.5l0.1,21.1h-9.8l-0.1-20.2
		c0-4.6-0.5-8.1-5.5-8.1c-3.6,0-7,1.8-8.8,5.6v22.6h-9.7L213.5,11.2L213.5,11.2z"/>
</g>
</svg>
