<?xml version="1.0" encoding="utf-8"?>
<!-- Generator: Adobe Illustrator 24.0.1, SVG Export Plug-In . SVG Version: 6.00 Build 0)  -->
<svg version="1.1" id="レイヤー_1" xmlns="http://www.w3.org/2000/svg" xmlns:xlink="http://www.w3.org/1999/xlink" x="0px"
	 y="0px" viewBox="0 0 250 100" style="enable-background:new 0 0 250 100;" xml:space="preserve">
<g>
	<path d="M23.105,21.138l9.959,31.073l2.091,7.469l2.49-7.469l10.557-29.679h8.565l10.856,29.679l2.291,7.27l2.191-7.27l9.76-31.073
		h10.258L74.694,73.524h-9.66L54.875,45.24l-2.689-8.963l-2.689,8.963l-9.86,28.284h-9.76L12.05,21.138H23.105z"/>
	<path d="M109.651,36.974c11.951,0,18.723,7.669,18.723,18.524c0,10.955-6.772,18.624-18.723,18.624s-18.723-7.669-18.723-18.624
		C90.828,44.642,97.6,36.974,109.651,36.974z M118.714,55.597c0-6.673-3.585-10.358-9.163-10.358c-5.577,0-9.163,3.585-9.163,10.358
		s3.685,10.358,9.262,10.358C115.228,65.955,118.714,62.27,118.714,55.597z"/>
	<path d="M135.744,19.545c2.789,0,6.872-0.498,9.66-1.295v55.174h-9.66V19.545z"/>
	<path d="M154.766,91.65V38.766c2.789,0,6.872-0.498,9.66-1.295v3.187c2.39-2.39,5.677-3.685,9.163-3.685
		c11.154,0,16.831,7.569,16.831,18.723c0,11.055-7.071,18.425-18.225,18.425c-3.187,0-5.876-0.896-7.768-2.191v18.425
		C161.638,90.455,157.555,90.953,154.766,91.65z M171.099,65.955c6.274,0,9.461-4.78,9.461-10.258
		c0-6.075-2.689-10.557-9.163-10.557c-2.789,0-5.079,0.996-6.872,2.39v16.931C166.12,65.457,168.311,65.955,171.099,65.955z"/>
	<path d="M198.189,19.545c2.789,0,6.872-0.498,9.66-1.295v25.197c1.992-3.287,5.677-6.474,11.852-6.474
		c9.063,0,12.25,7.071,12.25,15.437l0.1,21.014h-9.76l-0.1-20.118c0-4.581-0.498-8.067-5.478-8.067
		c-3.585,0-6.971,1.793-8.764,5.577v22.508h-9.66L198.189,19.545L198.189,19.545z"/>
</g>
</svg>
