<?xml version="1.0" encoding="utf-8"?>
<!-- Generator: Adobe Illustrator 24.0.1, SVG Export Plug-In . SVG Version: 6.00 Build 0)  -->
<svg version="1.1" id="レイヤー_1" xmlns="http://www.w3.org/2000/svg" xmlns:xlink="http://www.w3.org/1999/xlink" x="0px"
	 y="0px" viewBox="0 0 280 120" style="enable-background:new 0 0 280 120;" xml:space="preserve">
<g>
	<path d="M37.7,31l10,31.2l2.1,7.5l2.5-7.5l10.6-29.8h8.6l10.9,29.8l2.3,7.3l2.2-7.3L96.7,31H107L89.5,83.6h-9.7L69.6,55.2l-2.7-9
		l-2.7,9l-9.9,28.4h-9.8L26.6,31H37.7z"/>
	<path d="M124.6,46.9c12,0,18.8,7.7,18.8,18.6c0,11-6.8,18.7-18.8,18.7c-12,0-18.8-7.7-18.8-18.7C105.7,54.6,112.5,46.9,124.6,46.9z
		 M133.7,65.6c0-6.7-3.6-10.4-9.2-10.4s-9.2,3.6-9.2,10.4S119,76,124.6,76S133.7,72.3,133.7,65.6z"/>
	<path d="M150.8,29.4c2.8,0,6.9-0.5,9.7-1.3v55.4h-9.7V29.4z"/>
	<path d="M169.9,101.8V48.7c2.8,0,6.9-0.5,9.7-1.3v3.2c2.4-2.4,5.7-3.7,9.2-3.7c11.2,0,16.9,7.6,16.9,18.8
		c0,11.1-7.1,18.5-18.3,18.5c-3.2,0-5.9-0.9-7.8-2.2v18.5C176.8,100.6,172.7,101.1,169.9,101.8z M186.3,76c6.3,0,9.5-4.8,9.5-10.3
		c0-6.1-2.7-10.6-9.2-10.6c-2.8,0-5.1,1-6.9,2.4v17C181.3,75.5,183.5,76,186.3,76z"/>
	<path d="M213.5,29.4c2.8,0,6.9-0.5,9.7-1.3v25.3c2-3.3,5.7-6.5,11.9-6.5c9.1,0,12.3,7.1,12.3,15.5l0.1,21.1h-9.8l-0.1-20.2
		c0-4.6-0.5-8.1-5.5-8.1c-3.6,0-7,1.8-8.8,5.6v22.6h-9.7V29.4z"/>
</g>
</svg>
